<svg version="1.1" xmlns="http://www.w3.org/2000/svg" xmlns:xlink="http://www.w3.org/1999/xlink" width="32px" height="32px" viewBox="0,0,256,256"><g fill="#ffffff" fill-rule="nonzero" stroke="none" stroke-width="1" stroke-linecap="butt" stroke-linejoin="miter" stroke-miterlimit="10" stroke-dasharray="" stroke-dashoffset="0" font-family="none" font-weight="none" font-size="none" text-anchor="none" style="mix-blend-mode: normal"><g transform="translate(0.008,0.01735) scale(8,8)"><g id="Glyph"><g><path d="M0.442,22.473l1.662,0.927c0.105,-0.183 2.667,-4.46 10.842,-3.638c3.322,0.336 5.888,1.436 8.151,2.407c1.96,0.841 3.777,1.62 5.606,1.62c1.607,0 3.222,-0.601 4.952,-2.29l-1.333,-1.358c-0.891,0.871 -1.716,1.366 -2.541,1.591c-1.175,-0.892 -3.387,-3.044 -2.592,-6.167c0.723,-2.841 3.863,-4.465 3.894,-4.482l1.291,-0.656l-1.43,-0.236c-0.098,-0.016 -9.554,-1.446 -12.411,8.294c-1.346,-1.516 -2.057,-3.55 -2.057,-5.957c0,-7.182 8.186,-7.938 8.534,-7.967l1.741,-0.143l-1.573,-0.758c-0.089,-0.043 -9.02,-4.239 -15.226,1.648c-5.227,4.959 -5.081,12.247 -4.884,14.56c-1.81,1.206 -2.565,2.496 -2.626,2.605z"></path><path d="M12.891,25.796c3.238,0.327 5.764,1.411 7.991,2.366c1.968,0.845 3.878,1.664 5.83,1.663c1.719,0 3.471,-0.635 5.324,-2.445l-2.096,-2.146c-2.429,2.373 -4.068,1.805 -7.876,0.172c-2.306,-0.989 -5.176,-2.221 -8.873,-2.594c-9.843,-0.999 -13.095,4.64 -13.229,4.88l2.623,1.457c0.023,-0.043 2.395,-4.149 10.306,-3.353z"></path></g></g></g></g></svg>